<svg width="1499" height="348" viewBox="0 0 1499 348" fill="none" xmlns="http://www.w3.org/2000/svg">
<path d="M449.134 324.66V121.383H484.81L548.719 240.218L612.628 121.383H647.021V324.66H612.628V181.699L559.499 280.514H536.656L483.527 181.699V324.66H449.134ZM1048.96 327.74C1037.92 327.74 1028.42 326.457 1020.21 323.89C1012 321.323 1005.58 317.987 1000.19 313.623C995.056 309.26 990.949 304.384 988.126 298.737C985.303 293.09 983.506 287.444 982.736 281.284H1014.31C1015.59 286.674 1018.93 291.037 1024.06 294.63C1029.19 298.224 1037.41 300.02 1048.7 300.02C1061.28 300.02 1070.26 298.224 1075.39 294.887C1080.52 291.55 1083.09 286.93 1083.09 281.284C1083.09 277.947 1081.81 274.867 1079.5 272.044C1077.19 269.221 1073.08 266.654 1067.43 264.344C1061.79 262.034 1054.09 260.494 1044.08 259.211C1035.35 257.928 1027.65 256.388 1020.47 254.078C1013.28 251.768 1007.38 248.944 1002.5 245.351C997.623 241.758 993.773 237.394 990.949 232.005C988.126 226.615 986.843 220.455 986.843 213.525C986.843 205.312 989.153 197.868 993.516 191.195C997.879 184.522 1004.81 179.132 1014.05 175.025C1023.29 170.919 1034.58 168.865 1048.44 168.865C1062.3 168.865 1072.82 170.919 1081.29 175.282C1089.76 179.645 1096.18 185.292 1100.54 192.222C1104.91 199.152 1107.73 206.852 1108.5 215.065H1076.93C1075.39 209.162 1072.31 204.542 1067.69 201.205C1063.07 197.868 1056.66 196.328 1048.44 196.328C1037.15 196.328 1029.45 198.125 1024.83 201.462C1020.47 204.798 1018.16 208.905 1018.16 213.525C1018.16 218.401 1020.72 222.765 1025.34 226.358C1030.22 229.951 1039.97 232.518 1054.35 234.058C1063.33 235.341 1071.54 236.881 1078.73 239.191C1085.91 241.501 1092.33 244.581 1097.46 248.174C1102.6 252.024 1106.7 256.388 1109.53 261.777C1112.35 267.167 1113.89 273.584 1113.89 281.027C1113.89 289.754 1111.58 297.454 1106.7 304.383C1101.83 311.313 1094.64 316.96 1084.89 321.067C1075.13 325.173 1062.82 327.227 1048.19 327.227L1048.96 327.74ZM1193.97 326.2C1182.42 326.2 1173.18 324.66 1165.99 321.323C1158.81 317.987 1153.67 312.853 1150.34 305.924C1147 298.994 1145.2 290.01 1145.2 278.717V198.895H1123.64V171.945H1145.2V137.553H1176.77V171.945H1215.53V198.895H1176.77V274.354C1176.77 283.337 1178.31 289.497 1181.91 293.09C1185.24 296.684 1191.66 298.48 1201.16 298.48C1206.8 298.48 1212.71 298.224 1218.35 297.71V324.66C1214.76 324.917 1210.91 325.43 1207.06 325.687C1203.21 325.943 1198.85 326.2 1193.97 326.2ZM1236.83 324.66V172.202H1266.09V198.125C1268.15 192.735 1271.23 187.859 1274.82 183.752C1278.67 179.389 1283.03 176.052 1288.68 173.229C1294.07 170.662 1300.23 169.122 1307.16 169.122C1312.03 169.122 1315.63 169.122 1317.94 169.635C1320.25 169.892 1322.04 170.405 1322.81 170.662V199.408C1319.48 198.382 1316.65 197.868 1313.83 197.355C1311.26 196.842 1307.93 196.585 1304.08 196.585C1295.86 196.585 1289.19 198.382 1283.8 202.232C1278.41 206.082 1274.56 210.702 1272 216.605C1269.43 222.508 1268.15 228.668 1268.15 235.341V324.917H1236.58L1236.83 324.66ZM806.665 285.904V225.331C806.665 211.985 804.099 201.205 798.965 192.992C793.832 184.779 786.646 178.875 777.406 175.025C768.166 171.175 757.386 169.379 744.81 169.379C732.233 169.379 721.71 171.175 712.47 175.025C703.487 178.875 696.3 184.009 691.424 190.682C686.547 197.355 683.724 205.055 683.21 214.038H714.01C714.78 208.648 717.347 204.542 721.967 201.462C726.586 198.382 733.773 196.842 743.526 196.842C754.306 196.842 762.519 198.895 767.396 203.258C772.529 207.622 775.096 215.578 775.096 226.871V235.085H727.87C710.417 235.085 697.327 238.678 688.344 246.121C679.361 253.564 674.997 264.601 674.997 279.744C674.997 288.727 677.051 296.94 680.9 304.127C685.007 311.313 690.91 316.96 698.61 321.067C706.31 325.173 715.55 327.227 726.587 327.227C739.676 327.227 750.456 324.66 759.439 319.527C768.423 314.393 774.582 308.49 778.176 301.304C778.176 305.924 778.176 309.773 778.689 312.853C778.946 315.933 779.459 319.527 779.972 324.147H808.719C807.949 318.5 807.435 312.597 807.435 306.437C807.435 300.534 807.179 293.347 807.179 285.39L806.665 285.904ZM775.096 267.424C775.096 274.611 773.299 280.514 769.449 285.39C765.599 290.267 760.723 294.117 754.819 296.684C748.659 299.25 742.243 300.534 734.8 300.534C725.047 300.534 717.86 298.737 713.497 294.887C709.133 291.037 706.823 285.904 706.823 279.744C706.823 273.071 709.39 267.937 714.01 264.601C718.887 261.264 725.303 259.467 733.26 259.467H774.839V267.681L775.096 267.424ZM898.294 169.635C885.461 169.635 873.654 172.459 862.618 177.849C851.838 183.239 842.855 191.452 836.438 202.745C830.022 214.038 826.428 227.898 826.428 244.581V250.228C826.428 267.937 829.765 282.31 836.695 293.86C843.625 305.41 852.608 313.88 863.901 319.527C875.194 325.173 887.514 327.997 900.861 327.997C917.8 327.997 932.43 324.147 944.237 316.19C956.3 308.49 963.743 296.94 966.823 281.797H935.253C933.457 287.444 929.864 291.807 924.73 295.4C919.597 298.737 911.64 300.534 900.861 300.534C893.674 300.534 886.744 299.25 880.584 296.427C874.168 293.604 869.034 289.24 865.185 282.824C861.078 276.407 859.025 268.194 858.511 257.928H969.903V241.758C969.903 218.658 963.743 200.948 951.423 188.372C939.103 176.052 921.394 169.635 898.294 169.635ZM858.768 234.058C859.281 225.075 861.335 217.888 865.185 212.498C869.034 207.108 873.911 203.258 880.071 200.692C886.231 198.125 892.904 196.842 899.834 196.842C906.764 196.842 913.694 197.868 919.34 200.178C924.987 202.488 929.607 206.082 933.2 211.472C936.537 216.861 938.59 224.305 938.59 233.801H858.768V234.058ZM1468.86 203.515C1462.18 192.222 1453.46 183.752 1442.16 178.105C1430.87 172.459 1418.29 169.379 1404.18 169.379C1390.06 169.379 1377.48 172.202 1366.45 178.105C1355.15 183.752 1346.17 192.222 1339.5 203.515C1332.82 214.808 1329.49 228.411 1329.49 244.324V249.971C1329.49 266.911 1332.82 281.284 1339.5 292.834C1346.17 304.384 1355.15 313.11 1366.45 319.013C1377.74 324.917 1390.32 327.74 1404.18 327.74C1418.04 327.74 1431.13 324.917 1442.16 319.013C1453.46 313.11 1462.18 304.384 1468.86 292.834C1475.53 281.284 1478.87 266.911 1478.87 249.971V244.324C1478.87 228.155 1475.53 214.551 1468.86 203.515ZM1446.78 250.228C1446.78 262.034 1444.73 271.787 1440.88 278.974C1436.77 286.417 1431.64 291.807 1425.22 295.144C1418.81 298.48 1411.88 300.277 1404.69 300.277C1397.5 300.277 1390.57 298.48 1384.16 295.144C1377.74 291.807 1372.35 286.417 1368.5 278.974C1364.39 271.531 1362.34 262.034 1362.34 250.228V244.581C1362.34 233.801 1364.39 224.818 1368.5 217.631C1372.61 210.702 1377.74 205.568 1384.16 202.232C1390.57 198.895 1397.5 197.098 1404.69 197.098C1411.88 197.098 1418.81 198.895 1425.22 202.232C1431.64 205.568 1437.03 210.702 1440.88 217.631C1444.99 224.561 1446.78 233.545 1446.78 244.581V250.228Z" fill="white"/>
<path d="M110.602 240.473L67.7393 283.336L32.5765 248.173L108.292 172.458H20V121.639H135.498V20H185.291V60.8094C185.291 128.055 158.598 192.734 110.859 240.473H110.602ZM159.625 283.85V324.659H209.417V223.02H324.916V172.201H236.367L312.082 96.4856L276.92 61.3227L234.057 104.185C186.318 151.925 159.625 216.347 159.625 283.85Z" fill="white"/>
</svg>
